<svg width="1280" height="567" xmlns="http://www.w3.org/2000/svg" xmlns:xlink="http://www.w3.org/1999/xlink" overflow="hidden"><defs><clipPath id="clip0"><rect x="0" y="103" width="1280" height="567"/></clipPath></defs><g clip-path="url(#clip0)" transform="matrix(1 0 0 1 0 -103)"><path d="M-31.3067 211.176C-31.3067 148.819 19.3084 98.2684 81.7454 98.2684 144.182 98.2684 194.798 148.819 194.798 211.176 194.798 273.533 144.182 324.083 81.7454 324.083 19.3084 324.083-31.3067 273.533-31.3067 211.176Z" fill="#257180" fill-rule="evenodd" transform="matrix(1.00004 0 0 1 2.30696 4.7316)"/><path d="M103.486 573.957C103.486 523.527 144.368 482.646 194.798 482.646 245.227 482.646 286.109 523.527 286.109 573.957 286.109 624.387 245.227 665.268 194.798 665.268 144.368 665.268 103.486 624.387 103.486 573.957Z" fill="#F2E5BF" fill-rule="evenodd" transform="matrix(1.00004 0 0 1 2.30696 4.7316)"/><path d="M1044.43 482.646C1044.43 404.518 1107.83 341.186 1186.03 341.186 1264.24 341.186 1327.64 404.518 1327.64 482.646 1327.64 560.771 1264.24 624.106 1186.03 624.106 1107.83 624.106 1044.43 560.771 1044.43 482.646Z" fill="#FD8B51" fill-rule="evenodd" transform="matrix(1.00004 0 0 1 2.30696 4.7316)"/><path d="M1004.42 276.108C1004.42 249.612 1025.9 228.133 1052.4 228.133 1078.89 228.133 1100.37 249.612 1100.37 276.108 1100.37 302.603 1078.89 324.083 1052.4 324.083 1025.9 324.083 1004.42 302.603 1004.42 276.108Z" fill="#CB6040" fill-rule="evenodd" transform="matrix(1.00004 0 0 1 2.30696 4.7316)"/></g></svg>